<svg width="112" height="26" viewBox="0 0 112 26" fill="none" xmlns="http://www.w3.org/2000/svg">
<g clip-path="url(#clip0_249_104453)">
<path fill-rule="evenodd" clip-rule="evenodd" d="M49.1659 8.4782C49.2857 8.35843 49.4512 8.28436 49.634 8.28436C49.8295 8.28436 50.0052 8.3691 50.1264 8.50386L50.1273 8.50292L52.522 10.897L52.5221 2.2852C52.5221 1.83536 52.8868 1.47069 53.3366 1.47069C53.7869 1.47069 54.1515 1.83536 54.1515 2.2852V12.8743C54.1515 13.3242 53.7869 13.6889 53.337 13.6889C53.0718 13.6889 52.8366 13.5625 52.6878 13.3669L48.4816 9.16158L49.1657 8.47841L48.7833 8.09565L49.1659 8.4782ZM44.2529 12.5218L44.2557 12.5247L43.3602 13.4202C43.3301 13.4503 43.2982 13.4776 43.2649 13.5019C43.1239 13.6187 42.943 13.6889 42.7456 13.6889C42.2953 13.6889 41.9307 13.3242 41.9307 12.8743V2.2852C41.9307 1.83536 42.2953 1.47069 42.7452 1.47069C43.1954 1.47069 43.5601 1.83536 43.5601 2.2852L43.56 10.9165L47.4651 7.01238C47.6267 6.85097 47.8391 6.77152 48.0508 6.77403C48.2625 6.77151 48.4749 6.85096 48.6365 7.01238L49.3338 7.70915C49.114 7.76225 48.9055 7.87461 48.7338 8.04622L44.2529 12.5218ZM57.8178 12.8743C57.8178 13.3242 57.4531 13.6889 57.0033 13.6889C56.553 13.6889 56.1883 13.3242 56.1883 12.8743V8.19068C56.1883 7.29096 56.9177 6.56159 57.8174 6.56159L58.0734 6.56155C57.9123 6.79245 57.8178 7.07326 57.8178 7.37614V12.8743ZM65.0485 1.47069C66.9046 1.47069 68.4092 2.97501 68.4092 4.83068C68.4092 6.68636 66.9046 8.19068 65.0485 8.19068L58.4288 8.19046L58.4288 7.37614C58.4288 6.94079 58.7705 6.58521 59.2003 6.56272L59.2347 6.56159H65.0485C66.0046 6.56159 66.7798 5.78664 66.7798 4.83068C66.7798 3.88572 66.0224 3.11761 65.0814 3.10008L65.0485 3.09978H57.0029C56.553 3.09978 56.1883 2.73509 56.1883 2.28523C56.1883 1.83537 56.553 1.47069 57.0029 1.47069H65.0485ZM78.0921 6.76503L78.1859 6.76523C80.0983 6.76523 81.6485 8.31514 81.6485 10.227C81.6485 12.139 80.0983 13.6889 78.1859 13.6889H70.2422C69.7923 13.6889 69.4276 13.3242 69.4276 12.8743C69.4276 12.4245 69.7923 12.0598 70.2422 12.0598H78.1859C79.1871 12.0598 80.0008 11.2574 80.0187 10.2607L80.0191 10.227C80.019 8.76522 79.2488 7.48347 78.0921 6.76503ZM80.834 1.47069C81.2838 1.47069 81.6485 1.83537 81.6485 2.28523C81.6485 2.73509 81.2838 3.09978 80.834 3.09978H72.8902C71.889 3.09978 71.0753 3.90218 71.0574 4.89883L71.0571 4.9325C71.0571 5.93344 71.8597 6.74697 72.8565 6.76493L72.8902 6.76523H75.9454C77.2616 6.76523 78.4063 7.49944 78.9921 8.58055C78.7584 8.46597 78.4965 8.39961 78.2196 8.39462L78.1859 8.39432H72.8902C70.9779 8.39432 69.4276 6.84441 69.4276 4.9325C69.4276 3.02059 70.9779 1.47069 72.8902 1.47069H80.834ZM94.0299 5.43028C94.5297 5.43028 94.9349 5.83548 94.9349 6.33533C94.9349 6.53155 94.8712 6.72196 94.754 6.8782L94.7208 6.91994L93.3007 8.59795H97.0066C97.3815 8.59795 97.6854 8.90186 97.6854 9.27674C97.6854 9.63824 97.4028 9.93373 97.0465 9.95438L97.0066 9.95553H92.7076V11.7656C92.7076 12.8702 91.8282 13.7694 90.7313 13.8011L90.6713 13.802H89.9925C89.6176 13.802 89.3137 13.4981 89.3137 13.1232C89.3137 12.7617 89.5963 12.4662 89.9526 12.4456L89.9925 12.4444H90.6713C91.0328 12.4444 91.3283 12.1618 91.3489 11.8055L91.3501 11.7656V9.95553H85.6935C85.3186 9.95553 85.0147 9.65163 85.0147 9.27674C85.0147 8.91525 85.2973 8.61975 85.6536 8.59911L85.6935 8.59795H91.5222L93.054 6.78785H88.1824C87.8209 6.78785 87.5254 6.50527 87.5047 6.14895L87.5036 6.10907C87.5036 5.74757 87.7862 5.45208 88.1425 5.43143L88.1824 5.43028H94.0299ZM95.649 3.39392C96.7536 3.39392 97.6528 4.27336 97.6845 5.37024L97.6854 5.43028V5.8828C97.6854 6.25769 97.3815 6.56159 97.0066 6.56159C96.6451 6.56159 96.3496 6.27901 96.329 5.92269L96.3278 5.8828V5.43028C96.3278 5.06878 96.0452 4.77329 95.6889 4.75264L95.649 4.75149H87.0511C86.6896 4.75149 86.3941 5.03408 86.3734 5.3904L86.3723 5.43028V5.8828C86.3723 6.25769 86.0684 6.56159 85.6935 6.56159C85.332 6.56159 85.0365 6.27901 85.0159 5.92269L85.0147 5.8828V5.43028C85.0147 4.32571 85.8941 3.42655 86.991 3.39479L87.0511 3.39392H95.649ZM107.415 5.43028C108.539 5.43028 109.451 6.34199 109.451 7.46664C109.451 8.59129 108.539 9.50301 107.415 9.50301H106.057V10.4081H108.772C109.147 10.4081 109.451 10.712 109.451 11.0868C109.451 11.4483 109.168 11.7438 108.812 11.7645L108.772 11.7656H106.057V12.4444H111.035C111.41 12.4444 111.714 12.7483 111.714 13.1232C111.714 13.4847 111.431 13.7802 111.075 13.8008L111.035 13.802H99.7218C99.3469 13.802 99.043 13.4981 99.043 13.1232C99.043 12.7617 99.3256 12.4662 99.6819 12.4456L99.7218 12.4444H104.7V11.7656H101.984C101.61 11.7656 101.306 11.4617 101.306 11.0868C101.306 10.7253 101.588 10.4299 101.945 10.4092L101.984 10.4081H104.7V9.50301H103.342C102.217 9.50301 101.306 8.59129 101.306 7.46664C101.306 6.34199 102.217 5.43028 103.342 5.43028H107.415ZM107.415 6.78785H103.342C102.967 6.78785 102.663 7.09176 102.663 7.46664C102.663 7.84153 102.967 8.14543 103.342 8.14543H107.415C107.79 8.14543 108.093 7.84153 108.093 7.46664C108.093 7.09176 107.79 6.78785 107.415 6.78785ZM105.378 0.226242C105.74 0.226242 106.035 0.508826 106.056 0.865146L106.057 0.90503V3.39392H109.677C110.782 3.39392 111.681 4.27336 111.713 5.37024L111.714 5.43028V5.8828C111.714 6.25769 111.41 6.56159 111.035 6.56159C110.673 6.56159 110.378 6.27901 110.357 5.92269L110.356 5.8828V5.43028C110.356 5.06878 110.074 4.77329 109.717 4.75264L109.677 4.75149H101.079C100.718 4.75149 100.422 5.03408 100.402 5.3904L100.401 5.43028V5.8828C100.401 6.25769 100.097 6.56159 99.7218 6.56159C99.3603 6.56159 99.0648 6.27901 99.0441 5.92269L99.043 5.8828V5.43028C99.043 4.32571 99.9224 3.42655 101.019 3.39479L101.079 3.39392H104.7V0.90503C104.7 0.530146 105.003 0.226242 105.378 0.226242ZM102.117 0.555075L102.153 0.57894L103.737 1.71025C104.042 1.92815 104.112 2.35209 103.894 2.65714C103.685 2.95046 103.285 3.02707 102.983 2.83882L102.947 2.81496L101.364 1.68364C101.059 1.46575 100.988 1.04181 101.206 0.736755C101.415 0.443432 101.815 0.366825 102.117 0.555075ZM109.777 0.736755C109.995 1.04181 109.924 1.46575 109.619 1.68364L108.035 2.81496L108 2.83882C107.698 3.02707 107.298 2.95046 107.089 2.65714C106.871 2.35209 106.941 1.92815 107.246 1.71025L108.83 0.57894L108.866 0.555075C109.168 0.366825 109.568 0.443432 109.777 0.736755ZM94.5937 0.566507C94.9057 0.358559 95.3271 0.442846 95.535 0.754768C95.7353 1.05514 95.6645 1.45706 95.3805 1.67211L95.3468 1.69608L93.8124 2.71897C93.2982 3.06182 92.6334 3.07324 92.1091 2.75325L92.0553 2.71897L90.521 1.69608C90.2091 1.48813 90.1248 1.06669 90.3327 0.754768C90.533 0.454399 90.9312 0.365114 91.239 0.544601L91.2741 0.566507L92.8084 1.58939C92.8759 1.63443 92.9617 1.63944 93.0333 1.60441L93.0594 1.58939L94.5937 0.566507ZM86.9512 0.736755C87.1608 0.443432 87.5608 0.366825 87.8624 0.555075L87.8981 0.57894L89.482 1.71025C89.787 1.92815 89.8577 2.35209 89.6398 2.65714C89.4303 2.95046 89.0303 3.02707 88.7286 2.83882L88.6929 2.81496L87.109 1.68364C86.804 1.46575 86.7333 1.04181 86.9512 0.736755ZM65.3674 23.7759C65.748 23.7759 65.9383 23.579 65.9383 23.1853V21.3021C66.1745 21.1906 66.4107 21.0725 66.6469 20.9413V20.4819C66.4173 20.6132 66.181 20.7313 65.9383 20.8494V19.4911H66.6338V19.0384H65.9383V17.8376H65.4789V19.0384H64.685V19.4911H65.4789V21.0397C65.1771 21.1512 64.8753 21.2496 64.5603 21.3284L64.6784 21.7943C64.954 21.7024 65.2165 21.604 65.4789 21.499V23.0672C65.4789 23.2641 65.3871 23.3625 65.2099 23.3625C65.0524 23.3625 64.8884 23.3494 64.7178 23.3297L64.8162 23.7759H65.3674ZM66.8963 23.8677C67.6312 23.6053 68.2545 23.2706 68.7663 22.8638C69.2125 23.2313 69.7702 23.5659 70.4264 23.8546L70.6757 23.4609C70.0524 23.205 69.5209 22.9097 69.0878 22.5751C69.6193 22.0633 69.9999 21.4465 70.2296 20.7247V20.3048H68.9041V19.2352H70.4855V18.7825H68.9041V17.8507H68.4448V18.7825H66.87V19.2352H68.4448V20.3048H66.9947V20.751H67.3424C67.5262 21.4268 67.8871 22.0305 68.4382 22.5685C67.9592 22.9425 67.3687 23.2444 66.6732 23.474L66.8963 23.8677ZM68.7532 22.2929C68.2808 21.8402 67.9527 21.3284 67.7821 20.751H69.7571C69.5406 21.3415 69.2059 21.8533 68.7532 22.2929ZM77.0059 23.8218C77.5964 23.8152 77.9836 23.7103 78.1542 23.5003C78.3707 23.2641 78.4888 22.2208 78.5151 20.3638H76.1726C76.3038 19.8651 76.4285 19.314 76.5466 18.6972H78.8038V18.2444H75.1096V18.6972H76.0807C75.9626 19.314 75.8051 20.0226 75.5952 20.8166H78.0492C78.0295 22.2142 77.9508 22.995 77.8064 23.1656C77.6883 23.31 77.4324 23.3887 77.0256 23.3953C76.7762 23.3953 76.5138 23.3887 76.2251 23.3822L76.3563 23.8218H77.0059ZM72.9508 22.9754C73.7054 22.7588 74.4075 22.4898 75.0637 22.1748V21.6958C74.775 21.8402 74.4862 21.9649 74.1844 22.083V18.9925H74.9127V18.5397H72.9114V18.9925H73.6988V22.2601C73.4233 22.352 73.1345 22.4307 72.8393 22.4964L72.9508 22.9754ZM83.9922 19.0581L84.4122 18.8481C84.2153 18.4544 84.0053 18.0935 83.7888 17.7654L83.3623 17.9754C83.5854 18.2904 83.7954 18.6513 83.9922 19.0581ZM81.7285 20.6329V19.6158H86.3413V20.6329H86.8071V19.1631H85.5408C85.7901 18.835 86.0263 18.4413 86.256 17.9688L85.777 17.7917C85.567 18.2838 85.3177 18.7431 85.0289 19.1631H81.2691V20.6329H81.7285ZM82.4699 19.1237L82.8767 18.9203C82.6668 18.5463 82.4371 18.2051 82.2009 17.8901L81.7744 18.1001C82.0172 18.4019 82.2468 18.7431 82.4699 19.1237ZM83.8019 23.8218C84.1694 23.8218 84.3597 23.6446 84.3597 23.2903V22.1814H86.8596V21.7352H84.3597V21.4006C84.8977 21.1381 85.3767 20.8691 85.8098 20.5935V20.1735H82.2731V20.5935H85.1339C84.8452 20.751 84.4318 20.9478 83.8807 21.1906V21.7352H81.2232V22.1814H83.8807V23.1263C83.8807 23.31 83.7954 23.4019 83.6379 23.4019C83.3557 23.4019 83.0933 23.3953 82.8571 23.3887L82.9686 23.8218H83.8019ZM92.4943 23.8087C92.9142 23.7956 93.262 23.789 93.5441 23.789C93.8984 23.789 94.1347 23.6709 94.2593 23.4347C94.3906 23.1984 94.4693 22.7588 94.4955 22.1092C94.5218 21.6893 94.548 20.4032 94.5808 18.2379H89.8171V18.6906H94.1019C94.0887 20.2982 94.0822 21.3284 94.069 21.7877C94.0494 22.4767 93.9903 22.9163 93.8919 23.1C93.7935 23.2772 93.6425 23.369 93.4457 23.369C93.0848 23.369 92.7239 23.3625 92.363 23.3559L92.4943 23.8087ZM91.6216 20.9019L91.9431 20.5738C91.5691 20.1604 91.1098 19.747 90.5651 19.3402L90.2371 19.6552C90.821 20.0948 91.2804 20.5082 91.6216 20.9019ZM89.8434 22.8769C91.2213 22.4307 92.3696 21.9124 93.2948 21.3349L93.1767 20.9084C92.1924 21.5121 91.0179 22.0239 89.6531 22.4439L89.8434 22.8769ZM100.681 23.8415V21.5187H103.372V21.0659H100.681V18.5856H103.122V18.1263H97.8205V18.5856H100.196V21.0659H97.558V21.5187H100.196V23.8415H100.681ZM101.994 20.6985C102.315 20.1998 102.578 19.6945 102.774 19.1762L102.341 18.9728C102.151 19.4715 101.895 19.9701 101.574 20.4819L101.994 20.6985ZM98.89 20.7247L99.3297 20.5082C99.1066 19.9636 98.8703 19.4649 98.621 19.0056L98.1814 19.2221C98.4307 19.6617 98.6669 20.1604 98.89 20.7247ZM111.139 20.9413L111.598 20.7182C111.113 19.9242 110.588 19.1959 110.023 18.5397L109.597 18.7431C109.859 19.0449 110.115 19.3796 110.364 19.7339C109.236 19.8389 108.042 19.9242 106.782 19.9767C107.372 19.4911 107.969 18.8219 108.56 17.982L108.074 17.8179C107.221 19.0712 106.506 19.7995 105.929 19.9964L106.021 20.4426C107.727 20.377 109.269 20.2851 110.653 20.1604C110.811 20.4098 110.975 20.6657 111.139 20.9413ZM106.966 23.8546V23.5265H110.391V23.8546H110.87V21.1184H106.487V23.8546H106.966ZM110.391 23.0738H106.966V21.5712H110.391V23.0738ZM43.9047 23.5015C44.6267 23.5015 45.2034 23.2654 45.6348 22.7934C46.0663 22.3213 46.282 21.6827 46.282 20.8774C46.282 20.1341 46.0716 19.5307 45.6508 19.0672C45.2301 18.6037 44.6747 18.372 43.9848 18.372C43.2436 18.372 42.6563 18.6091 42.2227 19.0833C41.7891 19.5574 41.5723 20.195 41.5723 20.996C41.5723 21.7393 41.7848 22.3427 42.2098 22.8062C42.6349 23.2697 43.1999 23.5015 43.9047 23.5015ZM43.9047 22.9312C43.4113 22.9312 43.0114 22.7501 42.7048 22.3881C42.3983 22.026 42.2451 21.5449 42.2451 20.9447C42.2451 20.3488 42.4021 19.8671 42.7161 19.4998C43.03 19.1324 43.4401 18.9487 43.9464 18.9487C44.4611 18.9487 44.8664 19.1228 45.1623 19.4709C45.4581 19.8191 45.606 20.3136 45.606 20.9543C45.606 21.578 45.4549 22.0634 45.1526 22.4105C44.8504 22.7576 44.4344 22.9312 43.9047 22.9312ZM48.4583 23.4181V20.3937H49.2881V19.8746H48.4583V19.346C48.4583 18.859 48.6548 18.6155 49.0478 18.6155C49.1845 18.6155 49.3116 18.6465 49.429 18.7084V18.1573C49.3222 18.1167 49.1791 18.0965 48.9997 18.0965C48.6622 18.0965 48.384 18.2048 48.1651 18.4216C47.9462 18.6384 47.8367 18.9369 47.8367 19.3171V19.8746H47.2312V20.3937H47.8367V23.4181H48.4583ZM51.1856 23.4181V20.3937H52.0154V19.8746H51.1856V19.346C51.1856 18.859 51.3821 18.6155 51.7751 18.6155C51.9118 18.6155 52.0389 18.6465 52.1563 18.7084V18.1573C52.0495 18.1167 51.9064 18.0965 51.727 18.0965C51.3895 18.0965 51.1113 18.2048 50.8924 18.4216C50.6735 18.6384 50.564 18.9369 50.564 19.3171V19.8746H49.9585V20.3937H50.564V23.4181H51.1856ZM53.3842 19.0128C53.4974 19.0128 53.593 18.9759 53.671 18.9022C53.7489 18.8285 53.7879 18.7362 53.7879 18.6251C53.7879 18.5119 53.7489 18.4179 53.671 18.3432C53.593 18.2684 53.4974 18.231 53.3842 18.231C53.2731 18.231 53.1797 18.2689 53.1039 18.3448C53.028 18.4206 52.9901 18.514 52.9901 18.6251C52.9901 18.7362 53.0275 18.8285 53.1023 18.9022C53.177 18.9759 53.271 19.0128 53.3842 19.0128ZM53.6918 23.4181V19.8746H53.0638V23.4181H53.6918ZM56.7331 23.5015C57.1154 23.5015 57.4422 23.4203 57.7135 23.258V22.6812C57.4422 22.882 57.1539 22.9824 56.8484 22.9824C56.4874 22.9824 56.2007 22.8671 55.9882 22.6364C55.7756 22.4057 55.6694 22.0864 55.6694 21.6784C55.6694 21.2641 55.7821 20.9324 56.0074 20.6836C56.2327 20.4348 56.5248 20.3104 56.8837 20.3104C57.1891 20.3104 57.4668 20.4022 57.7167 20.5859V19.9643C57.486 19.849 57.2083 19.7913 56.8837 19.7913C56.3198 19.7913 55.8696 19.9691 55.5332 20.3248C55.1968 20.6804 55.0286 21.1487 55.0286 21.7297C55.0286 22.253 55.1845 22.6791 55.4964 23.008C55.8082 23.337 56.2205 23.5015 56.7331 23.5015ZM60.4023 23.5015C60.9171 23.5015 61.3304 23.3915 61.6423 23.1714V22.6108C61.3112 22.8649 60.947 22.992 60.5497 22.992C60.1973 22.992 59.9228 22.889 59.7263 22.6829C59.5298 22.4767 59.4262 22.1846 59.4155 21.8066H61.8954V21.4894C61.8954 20.9533 61.7651 20.5362 61.5045 20.2383C61.2439 19.9403 60.8819 19.7913 60.4184 19.7913C59.9506 19.7913 59.5592 19.9675 59.2441 20.32C58.9291 20.6724 58.7715 21.1199 58.7715 21.6624C58.7715 22.2391 58.9152 22.6898 59.2025 23.0145C59.4898 23.3391 59.8897 23.5015 60.4023 23.5015ZM61.2674 21.3036H59.4155C59.4625 21.0045 59.5773 20.7621 59.76 20.5763C59.9426 20.3905 60.1588 20.2975 60.4087 20.2975C60.68 20.2975 60.8904 20.3851 61.0399 20.5603C61.1894 20.7354 61.2653 20.9832 61.2674 21.3036Z" fill="#3A3A3A"/>
<g clip-path="url(#clip1_249_104453)">
<path fill-rule="evenodd" clip-rule="evenodd" d="M24.615 24.5623H24.6048C24.5947 24.5623 24.5847 24.5622 24.5746 24.5621C24.5727 24.562 24.5707 24.5619 24.5687 24.5619L24.5746 24.5621C23.7238 24.5507 22.9076 24.08 22.4939 23.2694C22.4935 23.2685 22.493 23.2676 22.4926 23.2668L19.2023 16.799L21.865 11.5693L24.6098 16.9649L30.4646 5.45623L22.8208 5.45624C21.5112 5.45624 20.4496 4.39458 20.4496 3.08496V3.07705C20.4496 1.76742 21.5112 0.705765 22.8208 0.705765H34.2727C35.5823 0.705765 36.6439 1.76742 36.6439 3.07705L36.6439 3.09333C36.6623 3.49016 36.5811 3.89703 36.3881 4.27638L26.7273 23.2668L26.726 23.2694C26.3132 24.0782 25.4998 24.5486 24.651 24.562C24.6492 24.5619 24.6474 24.562 24.6456 24.562L24.651 24.562C24.639 24.5622 24.627 24.5623 24.615 24.5623Z" fill="url(#paint0_linear_249_104453)"/>
<path fill-rule="evenodd" clip-rule="evenodd" d="M23.2286 0.705765L33.0186 0.705765L30.44 5.45624H23.2286V0.705765Z" fill="url(#paint1_linear_249_104453)"/>
<path fill-rule="evenodd" clip-rule="evenodd" d="M27.3278 0.705765C26.8607 0.723758 26.4213 0.856842 26.0096 1.10502C25.5979 1.3532 25.244 1.76057 24.9478 2.32715L24.9543 2.31479L14.2965 23.2649C13.877 24.0895 13.0427 24.5636 12.1779 24.5623C11.313 24.5637 10.4787 24.0895 10.0592 23.2649L0.40205 4.28183C0.163386 3.81269 0.0952698 3.30142 0.174704 2.81892C0.304874 1.63044 1.31056 0.705765 2.53187 0.705765H14.8924C15.8792 0.705765 16.7252 1.3094 17.0825 2.1681L17.5865 3.15901L14.9237 8.38871L13.4319 5.45622H6.3227L12.1778 16.9656L19.6904 2.19817C20.1562 1.28246 21.0966 0.705765 22.124 0.705765H27.3278Z" fill="url(#paint2_linear_249_104453)"/>
<path fill-rule="evenodd" clip-rule="evenodd" d="M27.3278 0.705765C26.8607 0.723758 26.4213 0.856842 26.0096 1.10502C25.6144 1.34327 25.2724 1.72824 24.9835 2.25992L24.9517 2.31939L18.1547 15.6803L14.0345 13.3158L19.6903 2.19817C20.1562 1.28246 21.0966 0.705765 22.1239 0.705765H27.3278Z" fill="url(#paint3_linear_249_104453)"/>
</g>
</g>
<defs>
<linearGradient id="paint0_linear_249_104453" x1="27.9243" y1="0.705765" x2="27.9243" y2="24.5623" gradientUnits="userSpaceOnUse">
<stop stop-color="#0076ED"/>
<stop offset="1" stop-color="#1D9FFA"/>
</linearGradient>
<linearGradient id="paint1_linear_249_104453" x1="24.8245" y1="2.68183" x2="30.4291" y2="5.45598" gradientUnits="userSpaceOnUse">
<stop stop-color="#0453D0"/>
<stop offset="0.770833" stop-color="#0453D0" stop-opacity="0"/>
</linearGradient>
<linearGradient id="paint2_linear_249_104453" x1="13.7354" y1="0.705765" x2="13.7354" y2="24.5623" gradientUnits="userSpaceOnUse">
<stop stop-color="#0076ED"/>
<stop offset="1" stop-color="#1D9FFA"/>
</linearGradient>
<linearGradient id="paint3_linear_249_104453" x1="20.6812" y1="0.705765" x2="20.6812" y2="11.125" gradientUnits="userSpaceOnUse">
<stop stop-color="#00C2FF"/>
<stop offset="1" stop-color="#00C2FF" stop-opacity="0"/>
</linearGradient>
<clipPath id="clip0_249_104453">
<rect width="112" height="25.1151" fill="white"/>
</clipPath>
<clipPath id="clip1_249_104453">
<rect width="36.7908" height="36.7908" fill="white" transform="translate(-0.000732422 -6.3362)"/>
</clipPath>
</defs>
</svg>
