<?xml version="1.0" encoding="UTF-8"?>
<svg width="141px" height="35px" viewBox="0 0 141 35" version="1.1" xmlns="http://www.w3.org/2000/svg" xmlns:xlink="http://www.w3.org/1999/xlink">
    <title>编组</title>
    <defs>
        <polygon id="path-1" points="0 35 141 35 141 0 0 0"></polygon>
        <path d="M18.3904251,0 L14.4094175,0 C14.3055586,0 14.218885,0.07268165 14.20693,0.168833416 L14.20693,0.168833416 C14.2024469,0.211231045 13.6906244,4.42600965 11.2674998,7.91472885 L11.2674998,7.91472885 C8.79207213,11.4799152 7.17516135,12.9335482 3.03201427,15.3191719 L3.03201427,15.3191719 C2.3625355,15.6530533 1.03254419,16.1716671 0.741888782,16.2625192 L0.741888782,16.2625192 C0.142645507,16.4480088 -0.110650591,16.8651712 0.0447641242,17.4072552 L0.0447641242,17.4072552 C0.154600485,17.7850483 0.428070608,17.98568 0.836781421,17.98568 L0.836781421,17.98568 C1.01610609,17.98568 1.18646453,17.947825 1.32170522,17.918298 L1.32170522,17.918298 L1.36803076,17.9084557 C1.43004721,17.8948279 8.17414921,15.9914772 12.1783197,11.8766359 L12.1783197,11.8766359 C16.1309343,7.81327738 17.6888174,4.98474983 18.5884295,0.234701162 L18.5884295,0.234701162 C18.5914182,0.222587553 18.594407,0.205931342 18.594407,0.18927513 L18.594407,0.18927513 C18.594407,0.0847952584 18.5039974,0 18.3911723,0 L18.3911723,0 L18.3904251,0 Z" id="path-3"></path>
        <linearGradient x1="0%" y1="50%" x2="126.892157%" y2="50%" id="linearGradient-5">
            <stop stop-color="#01B88D" offset="0%"></stop>
            <stop stop-color="#1BD1A7" offset="100%"></stop>
        </linearGradient>
        <path d="M0,0.822968267 L0.00448311677,4.27913215 C0.00448311677,4.38361202 0.0956398245,4.46916438 0.206970558,4.46916438 L0.206970558,4.46916438 L3.8188683,4.46916438 C3.93019904,4.46916438 4.02135575,4.38436912 4.02210293,4.28064635 L4.02210293,4.28064635 L4.03405791,2.54310065 L4.31649427,2.06764152 C4.43454967,1.86928119 4.45322933,1.63382293 4.3687973,1.42183478 L4.3687973,1.42183478 C4.28287089,1.20908953 4.10354622,1.04252742 3.87490726,0.965303165 L3.87490726,0.965303165 L1.1850372,0.0507257349 C1.08640863,0.0166562115 0.984791318,0 0.881679632,0 L0.881679632,0 C0.395261462,0 0,0.368707954 0,0.822968267" id="path-6"></path>
        <linearGradient x1="0%" y1="50%" x2="126.892157%" y2="50%" id="linearGradient-8">
            <stop stop-color="#01B88D" offset="0%"></stop>
            <stop stop-color="#1BD1A7" offset="100%"></stop>
        </linearGradient>
        <path d="M20.2114589,0.165805014 L18.7895637,1.25375846 C18.7492156,1.27420018 18.6094918,1.33779662 18.5355204,1.33779662 L18.5355204,1.33779662 L0.962449846,1.3067555 C0.600064573,1.3067555 0.272049863,1.49300223 0.106921728,1.79281403 L0.106921728,1.79281403 C-0.0582064064,2.09186874 -0.0305605196,2.44770599 0.179398783,2.72101927 L0.179398783,2.72101927 L0.9056637,3.66739493 C1.04613469,3.85061325 1.27402646,3.96039283 1.51536758,3.96039283 L1.51536758,3.96039283 C1.73429312,3.96039283 1.94126367,3.87105497 2.08397622,3.71584936 L2.08397622,3.71584936 C2.10788618,3.68935084 2.14300393,3.67420883 2.18111042,3.67420883 L2.18111042,3.67420883 L22.4149108,3.70676415 C22.7645939,3.70676415 23.0746761,3.52354583 23.2256077,3.23130502 L23.2256077,3.23130502 C23.3765393,2.93755002 23.3339497,2.59761189 23.114277,2.34474031 L23.114277,2.34474031 L21.3217775,0.273313288 C21.1715931,0.0991801683 20.9489316,0 20.709832,0 L20.709832,0 C20.529013,0 20.3519299,0.0590538407 20.2114589,0.165805014" id="path-9"></path>
        <linearGradient x1="0%" y1="50%" x2="126.892157%" y2="50%" id="linearGradient-11">
            <stop stop-color="#01B88D" offset="0%"></stop>
            <stop stop-color="#1BD1A7" offset="100%"></stop>
        </linearGradient>
        <path d="M0.876530396,0.00302840209 C0.611279321,0.0219559151 0.39907846,0.11659348 0.245905304,0.285426897 L0.245905304,0.285426897 C-0.035783867,0.593566809 0.000828253264,1.03647061 0.00232262552,1.05539813 L0.00232262552,1.05539813 C0.0120360452,1.11975167 0.987861129,7.13340111 4.86500995,11.2535421 L4.86500995,11.2535421 C6.87494064,13.3900798 8.93866873,14.709706 10.3157328,15.4395509 L10.3157328,15.4395509 C11.8115994,16.2322352 12.8232894,16.5176621 12.8666262,16.5297757 L12.8666262,16.5297757 C12.869615,16.5305328 13.0608946,16.592615 13.3104548,16.592615 L13.3104548,16.592615 C13.6332392,16.592615 13.9067093,16.4896494 14.1032192,16.2943174 L14.1032192,16.2943174 L14.1525335,16.245863 C14.5492894,15.8521707 15.2127907,15.1927362 16.0630885,14.9004954 L16.0630885,14.9004954 C16.2244807,14.845227 16.3716763,14.7990439 16.5031811,14.7574034 L16.5031811,14.7574034 C17.1442668,14.5545004 17.5656798,14.4204936 17.5716573,13.8420688 L17.5716573,13.8420688 C17.5821179,13.7777153 17.5910841,13.5899544 17.4476244,13.3893227 L17.4476244,13.3893227 C17.2802547,13.1531074 16.9694252,12.992602 16.5233551,12.9115923 L16.5233551,12.9115923 C15.6005803,12.743516 11.5635336,11.6987173 8.6764064,9.65000324 L8.6764064,9.65000324 C5.42539955,7.34538926 3.99229655,5.39964092 3.42742384,4.44493716 L3.42742384,4.44493716 C2.67500741,3.17376539 1.8837373,0.82751087 1.85086111,0.718488395 L1.85086111,0.718488395 C1.79930527,0.472430725 1.5445148,0 0.95872087,0 L0.95872087,0 C0.93182217,0 0.904923469,0.000757100521 0.876530396,0.00302840209" id="path-12"></path>
        <linearGradient x1="0%" y1="50%" x2="126.892157%" y2="50%" id="linearGradient-14">
            <stop stop-color="#01B88D" offset="0%"></stop>
            <stop stop-color="#1BD1A7" offset="100%"></stop>
        </linearGradient>
    </defs>
    <g id="浏览页" stroke="none" stroke-width="1" fill="none" fill-rule="evenodd">
        <g id="浏览页-展开" transform="translate(-40.000000, -15.000000)">
            <g id="编组" transform="translate(40.000000, 15.000000)">
                <g>
                    <path d="M76.9083913,15.4318285 L83.8049192,15.4318285 C84.2352985,15.4318285 84.5849816,15.0775055 84.5849816,14.6421727 L84.5849816,13.4239979 L76.9083913,13.4239979 L76.9083913,15.4318285 Z M73.6162892,18.1263493 L73.6162892,13.4239979 L71.5069827,13.4239979 L71.5069827,10.7294772 L73.6162892,10.7294772 L73.6162892,9.87471068 L76.9083913,9.87471068 L76.9083913,10.7294772 L84.5849816,10.7294772 L84.5849816,9.87471068 L87.8770836,9.87471068 L87.8770836,10.7294772 L89.9863901,10.7294772 L89.9863901,13.4239979 L87.8770836,13.4239979 L87.8770836,16.565208 C87.8770836,17.4260313 87.1859365,18.1263493 86.3363858,18.1263493 L73.6162892,18.1263493 Z" id="Fill-1" fill="#232323"></path>
                    <path d="M66.2615867,29.2405092 C66.6546066,28.319875 67.0775139,26.6285124 67.0775139,23.6182807 L67.0775139,6.02780722 L77.4133397,6.02780722 L77.4133397,4.6884964 L81.3375612,4.6884964 L81.3375612,6.02780722 L89.9862406,6.02780722 L89.9862406,8.72232798 L70.369616,8.72232798 L70.369616,23.6182807 C70.369616,25.8191719 70.1559208,27.709652 69.735255,29.2405092 L66.2615867,29.2405092 Z" id="Fill-3" fill="#232323"></path>
                    <path d="M76.4422218,22.3783015 C76.8210452,22.5895325 80.3828815,24.3452487 80.6570988,24.3846179 C80.9335577,24.3081507 84.0844416,22.7992494 84.8405939,22.3783015 L84.7696113,22.0989314 L76.5124573,22.0989314 L76.4422218,22.3783015 Z M86.1339731,29.2406606 C85.7050883,29.2406606 84.5663766,29.2406606 80.7258399,27.405449 L80.70193,27.3812217 L80.6077845,27.3812217 L80.5778971,27.3956067 C76.7201751,29.2406606 75.5784747,29.2406606 75.1480955,29.2406606 L71.296351,29.2406606 L71.296351,26.5680958 L74.7692721,26.5680958 C75.2370106,26.5680958 76.06564,26.3409656 77.233492,25.8942763 L77.5361023,25.7784399 L77.2506772,25.6239914 C75.1137249,24.4678989 72.600938,23.0278937 72.1399241,22.7636657 L72.1399241,19.7064938 L89.1428917,19.7064938 L89.1428917,22.7636657 C88.6818778,23.0278937 86.1683437,24.4678989 84.0321385,25.6239914 L83.7459663,25.7784399 L84.0493238,25.8942763 C85.2164286,26.3409656 86.0458052,26.5680958 86.5135437,26.5680958 L89.9864648,26.5680958 L89.9864648,29.2406606 L86.1339731,29.2406606 Z" id="Fill-5" fill="#232323"></path>
                    <mask id="mask-2" fill="white">
                        <use xlink:href="#path-1"></use>
                    </mask>
                    <g id="Clip-8"></g>
                    <path d="M45.7673919,19.1016462 L59.6628124,19.1016462 L59.6628124,15.0768998 L45.7673919,15.0768998 L45.7673919,19.1016462 Z M59.6867223,21.9725713 L45.7666448,21.9725713 L45.7666448,26.2592745 L58.4292081,26.2592745 C59.1928323,26.2592745 59.6867223,25.705834 59.6867223,24.8495533 L59.6867223,21.9725713 Z M41.9911133,29.2430076 L41.9911133,12.1915897 L49.2029538,12.1915897 L50.062965,9.54325207 L50.1855035,9.1457743 L49.7797815,9.1472885 L40.9271202,9.1472885 L40.9271202,6.03257695 L64.4619889,6.03257695 L64.4619889,9.10640507 L54.4810766,9.10640507 L53.487319,12.1885613 L53.9341363,12.1915897 L63.3255188,12.1915897 L63.3255188,26.3743538 C63.3255188,28.1701962 62.238363,29.2430076 60.4182176,29.2430076 L41.9911133,29.2430076 Z" id="Fill-7" fill="#232323" mask="url(#mask-2)"></path>
                    <path d="M111.379823,24.8598499 L106.100953,19.2391356 L113.477175,10.8088213 L115.622346,10.8088213 L115.622346,7.4616799 L106.086757,7.4616799 L106.086757,5.0011032 L101.844234,5.0011032 L101.844234,7.4616799 L92.3086446,7.4616799 L92.3086446,10.8088213 L108.400045,10.8088213 L103.4731,16.440135 L99.3000652,12.0224534 L94.0555657,12.0224534 L100.943875,19.3315019 L96.1461925,24.8136667 C95.8159363,25.192217 95.3414731,25.4079907 94.8430999,25.4079907 L92.2989312,25.4079907 L92.2989312,29.2578468 L96.5519146,29.2578468 C97.0502877,29.2578468 97.5247509,29.0413161 97.8557544,28.6635229 L103.571728,22.1297454 L109.750958,28.709706 C110.079719,29.0594865 110.535503,29.2578468 111.012955,29.2578468 L115.63206,29.2578468 L115.63206,25.4079907 L112.641821,25.4079907 C112.165116,25.4079907 111.708585,25.2103874 111.379823,24.8598499" id="Fill-9" fill="#232323" mask="url(#mask-2)"></path>
                    <path d="M132.351769,5.970419 L132.351769,4.68789072 L128.4268,4.68789072 L128.4268,5.970419 L118.091722,5.970419 L118.091722,23.5608925 C118.091722,26.5711242 117.668067,28.2624868 117.275794,29.183121 L120.748715,29.183121 C121.170128,27.6522637 121.383824,25.7617837 121.383824,23.5608925 L121.383824,8.66493976 L141.000448,8.66493976 L141.000448,5.970419 L132.351769,5.970419 Z" id="Fill-10" fill="#232323" mask="url(#mask-2)"></path>
                    <polygon id="Fill-11" fill="#232323" mask="url(#mask-2)" points="129.731238 9.36185079 125.801039 9.36185079 125.092706 11.3961799 122.669582 11.3961799 122.669582 14.0907006 124.154988 14.0907006 122.673318 18.348634 122.669582 18.348634 122.669582 21.0431547 130.89909 21.0431547 130.89909 22.3907937 122.669582 22.3907937 122.669582 25.0853144 130.89909 25.0853144 130.89909 29.2099981 134.507999 29.2099981 134.507999 25.0853144 140.639408 25.0853144 140.639408 22.3907937 134.507999 22.3907937 134.507999 21.0431547 140.639408 21.0431547 140.639408 18.348634 134.507999 18.348634 134.507999 15.4315257 130.89909 15.4315257 130.89909 18.348634 126.603517 18.348634 128.085187 14.0907006 140.639408 14.0907006 140.639408 11.3961799 129.023652 11.3961799"></polygon>
                    <path d="M7.30396857,34.9487443 C3.30428122,34.9487443 0.0502856265,31.6515715 0.0502856265,27.5988124 L0.0502856265,7.40088473 C0.0502856265,3.34888274 3.30428122,0.0517099656 7.30396857,0.0517099656 L27.2374001,0.0517099656 C31.2370875,0.0517099656 34.491083,3.34888274 34.491083,7.40088473 L34.491083,27.5988124 C34.491083,31.6515715 31.2370875,34.9487443 27.2374001,34.9487443 L7.30396857,34.9487443 Z" id="Fill-12" fill="#FFFFFF" mask="url(#mask-2)"></path>
                    <path d="M27.2375495,7.57100521e-05 L7.304118,7.57100521e-05 C3.28649819,7.57100521e-05 -0.000373593064,3.3305609 -0.000373593064,7.40073331 L-0.000373593064,27.5994181 C-0.000373593064,31.6695905 3.28649819,35.0000757 7.304118,35.0000757 L27.2375495,35.0000757 C31.2544222,35.0000757 34.541294,31.6695905 34.541294,27.5994181 L34.541294,7.40073331 C34.541294,3.3305609 31.2544222,7.57100521e-05 27.2375495,7.57100521e-05 M27.2375495,0.103041381 C31.2088438,0.103041381 34.4396766,3.37674404 34.4396766,7.40073331 L34.4396766,27.5994181 C34.4396766,31.6234074 31.2088438,34.89711 27.2375495,34.89711 L7.304118,34.89711 C3.33282373,34.89711 0.10124372,31.6234074 0.10124372,27.5994181 L0.10124372,7.40073331 C0.10124372,3.37674404 3.33282373,0.103041381 7.304118,0.103041381 L27.2375495,0.103041381" id="Fill-13" fill="#8D9498" mask="url(#mask-2)"></path>
                </g>
                <g transform="translate(6.152398, 11.089251)">
                    <mask id="mask-4" fill="white">
                        <use xlink:href="#path-3"></use>
                    </mask>
                    <g id="Clip-17"></g>
                    <path d="M18.3904251,0 L14.4094175,0 C14.3055586,0 14.218885,0.07268165 14.20693,0.168833416 L14.20693,0.168833416 C14.2024469,0.211231045 13.6906244,4.42600965 11.2674998,7.91472885 L11.2674998,7.91472885 C8.79207213,11.4799152 7.17516135,12.9335482 3.03201427,15.3191719 L3.03201427,15.3191719 C2.3625355,15.6530533 1.03254419,16.1716671 0.741888782,16.2625192 L0.741888782,16.2625192 C0.142645507,16.4480088 -0.110650591,16.8651712 0.0447641242,17.4072552 L0.0447641242,17.4072552 C0.154600485,17.7850483 0.428070608,17.98568 0.836781421,17.98568 L0.836781421,17.98568 C1.01610609,17.98568 1.18646453,17.947825 1.32170522,17.918298 L1.32170522,17.918298 L1.36803076,17.9084557 C1.43004721,17.8948279 8.17414921,15.9914772 12.1783197,11.8766359 L12.1783197,11.8766359 C16.1309343,7.81327738 17.6888174,4.98474983 18.5884295,0.234701162 L18.5884295,0.234701162 C18.5914182,0.222587553 18.594407,0.205931342 18.594407,0.18927513 L18.594407,0.18927513 C18.594407,0.0847952584 18.5039974,0 18.3911723,0 L18.3911723,0 L18.3904251,0 Z" id="Fill-16" fill="url(#linearGradient-5)" mask="url(#mask-4)"></path>
                </g>
                <g transform="translate(15.129025, 5.214151)">
                    <mask id="mask-7" fill="white">
                        <use xlink:href="#path-6"></use>
                    </mask>
                    <g id="Clip-19"></g>
                    <path d="M0,0.822968267 L0.00448311677,4.27913215 C0.00448311677,4.38361202 0.0956398245,4.46916438 0.206970558,4.46916438 L0.206970558,4.46916438 L3.8188683,4.46916438 C3.93019904,4.46916438 4.02135575,4.38436912 4.02210293,4.28064635 L4.02210293,4.28064635 L4.03405791,2.54310065 L4.31649427,2.06764152 C4.43454967,1.86928119 4.45322933,1.63382293 4.3687973,1.42183478 L4.3687973,1.42183478 C4.28287089,1.20908953 4.10354622,1.04252742 3.87490726,0.965303165 L3.87490726,0.965303165 L1.1850372,0.0507257349 C1.08640863,0.0166562115 0.984791318,0 0.881679632,0 L0.881679632,0 C0.395261462,0 0,0.368707954 0,0.822968267" id="Fill-18" fill="url(#linearGradient-8)" mask="url(#mask-7)"></path>
                </g>
                <g transform="translate(5.845163, 7.896558)">
                    <mask id="mask-10" fill="white">
                        <use xlink:href="#path-9"></use>
                    </mask>
                    <g id="Clip-21"></g>
                    <path d="M18.7895637,1.25375846 C18.7492156,1.27420018 18.6094918,1.33779662 18.5355204,1.33779662 L0.962449846,1.3067555 C0.600064573,1.3067555 0.272049863,1.49300223 0.106921728,1.79281403 C-0.0582064064,2.09186874 -0.0305605196,2.44770599 0.179398783,2.72101927 L0.9056637,3.66739493 C1.04613469,3.85061325 1.27402646,3.96039283 1.51536758,3.96039283 C1.73429312,3.96039283 1.94126367,3.87105497 2.08397622,3.71584936 C2.10788618,3.68935084 2.14300393,3.67420883 2.18111042,3.67420883 L22.4149108,3.70676415 C22.7645939,3.70676415 23.0746761,3.52354583 23.2256077,3.23130502 C23.3765393,2.93755002 23.3339497,2.59761189 23.114277,2.34474031 L21.3217775,0.273313288 C21.1715931,0.0991801683 20.9489316,0 20.709832,0 C20.529013,0 20.3519299,0.0590538407 20.2114589,0.165805014 L18.7895637,1.25375846 Z" id="Fill-20" fill="url(#linearGradient-11)" mask="url(#mask-10)"></path>
                </g>
                <g transform="translate(11.585787, 12.721560)">
                    <mask id="mask-13" fill="white">
                        <use xlink:href="#path-12"></use>
                    </mask>
                    <g id="Clip-23"></g>
                    <path d="M0.876530396,0.00302840209 C0.611279321,0.0219559151 0.39907846,0.11659348 0.245905304,0.285426897 L0.245905304,0.285426897 C-0.035783867,0.593566809 0.000828253264,1.03647061 0.00232262552,1.05539813 L0.00232262552,1.05539813 C0.0120360452,1.11975167 0.987861129,7.13340111 4.86500995,11.2535421 L4.86500995,11.2535421 C6.87494064,13.3900798 8.93866873,14.709706 10.3157328,15.4395509 L10.3157328,15.4395509 C11.8115994,16.2322352 12.8232894,16.5176621 12.8666262,16.5297757 L12.8666262,16.5297757 C12.869615,16.5305328 13.0608946,16.592615 13.3104548,16.592615 L13.3104548,16.592615 C13.6332392,16.592615 13.9067093,16.4896494 14.1032192,16.2943174 L14.1032192,16.2943174 L14.1525335,16.245863 C14.5492894,15.8521707 15.2127907,15.1927362 16.0630885,14.9004954 L16.0630885,14.9004954 C16.2244807,14.845227 16.3716763,14.7990439 16.5031811,14.7574034 L16.5031811,14.7574034 C17.1442668,14.5545004 17.5656798,14.4204936 17.5716573,13.8420688 L17.5716573,13.8420688 C17.5821179,13.7777153 17.5910841,13.5899544 17.4476244,13.3893227 L17.4476244,13.3893227 C17.2802547,13.1531074 16.9694252,12.992602 16.5233551,12.9115923 L16.5233551,12.9115923 C15.6005803,12.743516 11.5635336,11.6987173 8.6764064,9.65000324 L8.6764064,9.65000324 C5.42539955,7.34538926 3.99229655,5.39964092 3.42742384,4.44493716 L3.42742384,4.44493716 C2.67500741,3.17376539 1.8837373,0.82751087 1.85086111,0.718488395 L1.85086111,0.718488395 C1.79930527,0.472430725 1.5445148,0 0.95872087,0 L0.95872087,0 C0.93182217,0 0.904923469,0.000757100521 0.876530396,0.00302840209" id="Fill-22" fill="url(#linearGradient-14)" mask="url(#mask-13)"></path>
                </g>
            </g>
        </g>
    </g>
</svg>