<?xml version="1.0" ?><svg height="500" id="svg2" version="1.1" width="500" xmlns="http://www.w3.org/2000/svg" xmlns:cc="http://creativecommons.org/ns#" xmlns:dc="http://purl.org/dc/elements/1.1/" xmlns:inkscape="http://www.inkscape.org/namespaces/inkscape" xmlns:rdf="http://www.w3.org/1999/02/22-rdf-syntax-ns#" xmlns:sodipodi="http://sodipodi.sourceforge.net/DTD/sodipodi-0.dtd" xmlns:svg="http://www.w3.org/2000/svg"><defs id="defs4"/><g id="layer1" transform="translate(0,-552.36218)"><path d="M 50 0 C 22.3 0 -9.9457479e-017 22.3 0 50 L 0 450 C 0 477.7 22.3 500 50 500 L 450 500 C 477.7 500 500 477.7 500 450 L 500 50 C 500 22.3 477.7 -9.9457479e-017 450 0 L 50 0 z M 250.25 49.84375 C 375.52589 95.64587 465.19866 238.52454 442.0625 382.84375 C 442.0625 382.84375 367.22297 450.21875 250.25 450.21875 C 133.27703 450.21875 58.375 382.84375 58.375 382.84375 C 35.233149 238.52454 124.96842 95.64587 250.25 49.84375 z M 250.21875 80.625 C 174.54068 110.88688 118.90637 184.05147 117.3125 267.6875 C 116.62828 291.47944 122.28651 315.74867 135.0625 337.875 C 142.64022 351.00622 152.14182 362.36375 162.96875 371.78125 C 142.24731 362.55729 124.14882 346.94948 111.9375 325.8125 C 105.11232 313.99053 100.44311 301.69517 98.34375 289 C 98.20483 288.18371 97.86521 287.21438 97.625 286.8125 C 96.19279 284.31922 93.400539 283.44113 90.96875 284.84375 C 89.307713 285.77616 88.418838 287.42144 88.0625 289.03125 C 78.55849 331.37241 85 366.8125 85 366.8125 C 149.97752 417.95069 242.95559 429.13248 316.71875 386.5625 C 351.41387 366.51959 373.66638 333.21547 380.75 296.75 L 380.78125 296.78125 C 383.17432 319.34247 378.70108 342.80899 366.5 363.96875 C 359.68052 375.77933 351.35199 385.93821 341.40625 394.125 C 340.76073 394.65554 340.10953 395.47426 339.875 395.875 C 338.4371 398.36031 339.08414 401.1809 341.5 402.59375 C 343.15078 403.56145 344.98572 403.53559 346.5625 403.03125 C 387.98946 390.09585 415.4375 366.78125 415.4375 366.78125 C 427.04092 286.35239 391.71296 201.81341 320.5 158.5 C 287.05832 137.73188 245.27981 132.41171 206.90625 145.6875 L 206.9375 145.65625 C 225.26815 132.30418 247.8376 124.4375 272.25 124.4375 C 285.89466 124.4375 298.85545 126.55804 310.90625 131.09375 C 311.68837 131.37608 312.71731 131.53125 313.1875 131.53125 C 316.06899 131.53125 318.20168 129.58189 318.21875 126.78125 C 318.22575 124.8777 317.28182 123.2822 316.0625 122.15625 C 284.13958 92.76301 250.21875 80.625 250.21875 80.625 z M 250.21875 207.8125 C 295.68389 207.8125 335.60822 223.34009 358.40625 246.71875 C 359.47528 252.0548 360.0625 257.54759 360.0625 263.125 C 360.0625 315.60771 310.88712 358.125 250.21875 358.125 C 189.54696 358.125 140.375 315.60657 140.375 263.125 C 140.375 257.54759 140.95654 252.0548 142.03125 246.71875 C 164.82929 223.34009 204.74565 207.8125 250.21875 207.8125 z M 250.21875 219.375 C 243.02016 219.375 236.17068 220.83545 229.9375 223.46875 C 238.38275 226.43448 244.4375 234.47447 244.4375 243.9375 C 244.4375 255.91999 234.76374 265.625 222.78125 265.625 C 213.31821 265.625 205.26799 259.55834 202.3125 251.09375 C 199.66099 257.33716 198.1875 264.20766 198.1875 271.40625 C 198.1875 300.15625 221.48697 323.4375 250.21875 323.4375 C 278.95623 323.4375 302.25 300.15625 302.25 271.40625 C 302.25 242.66878 278.95053 219.375 250.21875 219.375 z " id="rect2995" style="fill:#000000;fill-opacity:1;fill-rule:nonzero;opacity:1" transform="translate(0,552.36218)"/></g></svg>