<?xml version="1.0" standalone="no"?><!DOCTYPE svg PUBLIC "-//W3C//DTD SVG 1.1//EN" "http://www.w3.org/Graphics/SVG/1.1/DTD/svg11.dtd"><svg t="1523854219605" class="icon" style="" viewBox="0 0 1025 1024" version="1.1" xmlns="http://www.w3.org/2000/svg" p-id="1329" xmlns:xlink="http://www.w3.org/1999/xlink" width="200.1953125" height="200"><defs><style type="text/css"></style></defs><path d="M0 0.426489h1023.573511v1023.573511H0z" fill="#FFFFFF" p-id="1330"></path><path d="M1.705956 0h1023.573511v1023.573511H1.705956z" fill="#2B76AE" p-id="1331"></path><path d="M614.452885 350.70358c0-27.604072-21.788468-49.972565-48.670921-49.972565-26.870511 0-48.669214 22.378729-48.669214 49.972565v161.078058c0 61.358114-48.450852 111.100375-108.205368 111.100374-59.759633 0-108.210486-49.742261-108.210486-111.100374v-161.078058c0-27.604072-21.78335-49.972565-48.669214-49.972565-26.890982 0-48.677744 22.378729-48.677744 49.972565v161.088293c0 116.559434 92.0312 211.052328 205.557444 211.052329s205.557444-94.492895 205.557444-211.052329h-0.010235v-161.088293zM774.966271 300.729309c-26.880746 0-48.67945 22.378729-48.679451 49.972565v322.162939c0 27.604072 21.798704 49.977683 48.679451 49.977683 26.890982 0 48.67092-22.373611 48.67092-49.977683V350.70358c0-27.604072-21.781644-49.974271-48.67092-49.974271z" fill="#FFFFFF" p-id="1332"></path></svg>