<?xml version="1.0" standalone="no"?><!DOCTYPE svg PUBLIC "-//W3C//DTD SVG 1.1//EN" "http://www.w3.org/Graphics/SVG/1.1/DTD/svg11.dtd"><svg t="1534154321540" class="icon" style="" viewBox="0 0 1024 1024" version="1.1" xmlns="http://www.w3.org/2000/svg" p-id="7998" xmlns:xlink="http://www.w3.org/1999/xlink" width="200" height="200"><defs><style type="text/css"></style></defs><path d="M157.515279 0h708.969342A157.414887 157.414887 0 0 1 1023.9999 156.410965v711.17797A157.414887 157.414887 0 0 1 866.484621 1023.9999H157.515279A157.414887 157.414887 0 0 1 0 867.588935V156.410965A157.414887 157.414887 0 0 1 157.515279 0z" fill="#42BD56" p-id="7999"></path><path d="M522.842302 874.515993a1847.215505 1847.215505 0 0 1-360.5082-27.407056c-58.127053-10.842352-92.059599-50.196074-90.352933-104.809402 0-15.460391 5.923137-23.491762 21.785096-23.39137H130.509791c14.556861 0 25.198429 4.116078 30.117644 20.078429 6.123921 22.387449 23.993723 32.527056 45.778819 35.53882C261.019582 783.058747 315.934087 789.684628 371.450944 793.097961a1934.054712 1934.054712 0 0 0 262.023504 0c63.14666-4.818823 126.192929-10.039215 188.636844-20.078429 16.464312-2.81098 30.117644-10.039215 33.631369-26.503527 5.923137-25.098037 22.287057-28.109801 44.072153-27.808624 55.918426 0.602353 57.725485 2.108235 43.168623 55.21568-9.035293 33.029016-27.407056 56.721563-62.142739 67.061955-54.312152 16.163136-110.431362 21.082351-166.149003 26.302742a1331.501046 1331.501046 0 0 1-191.548217 7.529411z m1.104313-724.530125c99.58901-6.224313 208.916058 5.722352 317.339577 23.190586 64.150582 10.039215 94.970971 26.403135 108.523911 102.299597 3.614117 20.078429-4.718431 28.712154-24.094115 28.009409C913.568538 303.184284 900.718343 301.176441 888.269717 301.176441a28.109801 28.109801 0 0 1-30.117644-20.680782A50.898819 50.898819 0 0 0 813.176391 247.767819c-128.501948-17.066665-257.606249-27.808625-387.312903-20.781175C351.372515 230.901938 276.479973 240.941153 201.989 248.77174a43.269015 43.269015 0 0 0-39.152938 28.611762c-6.826666 21.684704-21.082351 26.603919-41.060388 24.796861a217.348998 217.348998 0 0 0-26.804703-1.003922c-17.167057 0.602353-23.39137-7.529411-23.290978-24.495684a95.171755 95.171755 0 0 1 74.290189-95.573324c120.972537-26.804703 243.651741-34.334114 377.976433-31.32235z m-97.882343 363.720748v107.018029a183.617237 183.617237 0 0 1-4.919215 36.843918c-3.513725 15.259606-27.306664 31.723918 6.525489 43.068231 7.93098 2.710588 5.923137 19.576469 2.610196 30.117644A19.275292 19.275292 0 0 1 408.395254 742.901888c-25.198429-1.907451-53.107446 1.907451-68.567836-26.001566-4.618039-8.232156-12.749803-8.834509-20.981959-9.135686a233.612526 233.612526 0 0 1-26.603919-1.706666c-82.522345-12.047058-92.059599-23.190586-92.059599-105.913715V391.629766c0-37.245487 14.054901-54.914504 49.694113-66.35921a204.197627 204.197627 0 0 1 131.614105 2.509804c30.117644 10.039215 43.4698 29.314507 44.373329 65.656464 1.003921 40.156859 0 80.313718 0 120.470577z m-90.352932-0.50196V398.356039c0-15.861959-2.610196-28.410978-22.789018-28.410977-18.572547 0-25.298821 9.33647-25.298821 26.503527v229.697232c0 16.865881 4.919215 31.32235 24.696468 31.32235s22.989802-16.062744 22.989802-32.025095c0.100392-37.446271 0-74.79215 0-112.23842z m373.860355-64.853327c11.24392-35.839996 21.283135-63.447837 28.51137-91.858815 5.521568-21.785096 16.36392-30.117644 39.353722-30.117644 68.869013 0 59.632935 3.915294 41.16078 55.516857-16.263528 45.276858-30.117644 91.65803-49.392937 135.529399s-13.251763 90.854893-15.159214 136.734104c-0.602353 15.159214 6.425097 35.036859-13.352155 42.265094s-43.97176 2.911372-65.556072-2.409412c-5.320784-1.305098-6.826666-7.830587-7.529411-13.251763a24.194507 24.194507 0 0 1 0-5.320784c16.665096-113.14195-40.156859-209.317627-72.382738-311.215656-10.74196-33.330193-8.934901-37.245487 25.700389-37.546663 8.031372 0 16.163136 0.702745 24.094116 0 19.1749-2.007843 29.515291 6.123921 34.735682 24.796861 7.529411 30.017252 17.568626 59.432151 29.4149 96.878422z m243.450957 66.359209v152.495671c0 20.680782-5.923137 30.719997-28.812547 31.021174-58.327837 1.003921-58.327837 1.907451-58.327837-57.223524 0-93.565481 0.602353-187.130962 0-281.098012 0-25.70039 8.834509-34.233722 34.233722-33.832153 53.107446 0.903529 53.107446 0 53.107446 52.003132v136.633712z m-395.846236 0.803137c0 52.505093-0.702745 105.110578 0 157.615671 0 17.468234-5.62196 23.692547-22.487841 24.897252-65.656464 4.618039-65.656464 5.019607-65.656464-60.235288V365.427415c0-35.839996 2.509804-38.249408 37.546663-38.550584a142.757633 142.757633 0 0 0 16.062743 0c25.599997-2.911372 34.735683 8.131764 34.032938 33.731761-1.505882 51.601564-0.501961 103.303519-0.501961 155.005475z m-402.57251 51.300387v104.106657c0 19.375684-7.830587 26.503527-27.005487 27.206271-55.918426 2.108235-55.918426 2.610196-55.918426-53.81019 0-58.729406 0.702745-117.458812 0-176.087826 0-21.885488 7.529411-30.117644 29.515291-30.117644 63.447837 0 53.30823-4.21647 53.509015 51.199995v77.301953z m0-196.768608c0 43.570192 0 43.570192-39.353721 43.570192-43.570192 0-43.570192 0-43.4698-44.473721 0-42.365486 0-42.365486 42.967839-42.265094 39.554506 0 39.554506 0 39.554506 43.168623z" fill="#FFFFFF" p-id="8000"></path></svg>