<?xml version="1.0" standalone="no"?><!DOCTYPE svg PUBLIC "-//W3C//DTD SVG 1.1//EN" "http://www.w3.org/Graphics/SVG/1.1/DTD/svg11.dtd"><svg t="1571796552792" class="icon" viewBox="0 0 1026 1024" version="1.1" xmlns="http://www.w3.org/2000/svg" p-id="27970" xmlns:xlink="http://www.w3.org/1999/xlink" width="200.390625" height="200"><defs><style type="text/css"></style></defs><path d="M497.752064 36.864c6.144-11.264 25.6-13.312 30.72-1.024l151.552 274.432c3.072 7.168 9.216 13.312 16.384 15.36 104.448 19.456 209.92 37.888 314.368 56.32 13.312 1.024 19.456 20.48 10.24 29.696C944.216064 492.544 866.392064 573.44 789.592064 654.336c-2.048 2.048-4.096 4.096-7.168 4.096-70.656 1.024-143.36-5.12-212.992-20.48 56.32-60.416 119.808-113.664 177.152-173.056 10.24-11.264 1.024-29.696-13.312-31.744 0-9.216-6.144-16.384-14.336-20.48-82.944-38.912-178.176-41.984-268.288-30.72-67.584 8.192-136.192 24.576-197.632 54.272-8.192 3.072-9.216 13.312-5.12 19.456 2.048 5.12 6.144 9.216 12.288 9.216 71.68 6.144 143.36 25.6 202.752 65.536 8.192 6.144 18.432 10.24 23.552 19.456-70.656 51.2-141.312 102.4-207.872 156.672-9.216 6.144-8.192 20.48 0 27.648-6.144 18.432 15.36 25.6 28.672 28.672 163.84 37.888 332.8 47.104 500.736 41.984 11.264 58.368 19.456 117.76 29.696 176.128 3.072 12.288-11.264 24.576-22.528 18.432-96.256-46.08-192.512-92.16-289.792-138.24-5.12-3.072-12.288-4.096-17.408-1.024-98.304 46.08-197.632 92.16-296.96 138.24-10.24 5.12-24.576-4.096-23.552-16.384 16.384-104.448 34.816-208.896 52.224-313.344 1.024-7.168 0-14.336-5.12-19.456-76.8-79.872-153.6-158.72-230.4-238.592-9.216-9.216-2.048-26.624 10.24-27.648 105.472-19.456 211.968-38.912 317.44-57.344 4.096-1.024 7.168-4.096 10.24-7.168 53.248-94.208 104.448-187.392 155.648-281.6z m0 0" fill="#FECE00" p-id="27971"></path><path d="M712.792064 452.608c7.168-6.144 15.36-12.288 21.504-20.48 14.336 2.048 23.552 20.48 13.312 31.744-57.344 59.392-120.832 112.64-177.152 173.056-21.504-7.168-45.056-10.24-66.56-21.504-6.144-2.048-2.048-9.216 2.048-11.264 67.584-51.2 139.264-98.304 206.848-151.552z m-409.6-1.024c43.008-4.096 86.016-6.144 129.024-3.072 47.104 4.096 96.256 9.216 140.288 27.648 5.12 3.072 3.072 10.24-1.024 13.312-27.648 20.48-55.296 39.936-82.944 60.416-5.12-9.216-15.36-13.312-23.552-19.456-59.392-39.936-131.072-59.392-202.752-65.536-5.12 0-10.24-4.096-12.288-9.216 17.408 1.024 34.816-3.072 53.248-4.096z m-3.072 286.72c194.56 17.408 393.216-8.192 577.536-74.752 0 4.096 0 8.192-3.072 11.264-21.504 25.6-47.104 47.104-74.752 66.56 0 21.504 7.168 41.984 9.216 63.488-167.936 5.12-336.896-4.096-500.736-41.984-13.312-3.072-34.816-10.24-28.672-28.672 7.168 2.048 13.312 3.072 20.48 4.096z m0 0" fill="#F2A308" p-id="27972"></path></svg>