<?xml version="1.0" standalone="no"?><!DOCTYPE svg PUBLIC "-//W3C//DTD SVG 1.1//EN" "http://www.w3.org/Graphics/SVG/1.1/DTD/svg11.dtd"><svg t="1534838639396" class="icon" style="" viewBox="0 0 1024 1024" version="1.1" xmlns="http://www.w3.org/2000/svg" p-id="3059" xmlns:xlink="http://www.w3.org/1999/xlink" width="200" height="200"><defs><style type="text/css"></style></defs><path d="M491.3 106.5c-235.7 0-426.8 191.1-426.8 426.8s191.1 426.8 426.8 426.8c235.7 0 426.8-191.1 426.8-426.8S727 106.5 491.3 106.5z m272 607.9c-71.8 75.1-333.7 210.1-491.6-131.3 0 0-102.9-188.9 142.9-327.7 0 0-210.1-67.5-311.5 135.1 0 0 81.3-226.4 352.7-235.2 271.4-8.8 385.3 222.6 386.5 334 1.4 111.3-42.9 187.4-79 225.1z" fill="#D61518" p-id="3060"></path><path d="M306.1 647.6S165.4 412.7 414.6 255.4c0 0-315.2-144.5-350.2 258.4 0 0-4.6 71.3 18.8 145.3 0 0 2.7-61.9 45-102.2 0 0 28.1 94.8 56.3 110.7 0 0-7.5-79.7 29.1-91 0-0.1 36.8 87.7 92.5 71z" fill="#070002" p-id="3061"></path><path d="M465.8 327.1l245 166.9c14 9.5 14 30.1 0 39.6l-245 166.9c-15.9 10.8-37.4-0.6-37.4-19.8V346.9c0-19.2 21.5-30.6 37.4-19.8z" fill="#D61518" p-id="3062"></path></svg>