<svg xmlns="http://www.w3.org/2000/svg" width="232" height="72" viewBox="0 0 232 72" fill="none">
  <path fill-rule="evenodd" clip-rule="evenodd" d="M68.5429 46.9614C68.0872 47.012 67.6442 46.8601 67.3024 46.5563C66.9606 46.2525 66.7708 45.8222 66.7708 45.3791V28.4935L66.5936 28.5062C66.0939 28.5545 65.6404 28.6029 65.2788 28.6414C65.0725 28.6634 64.8961 28.6822 64.7582 28.696C61.8595 28.9998 60.9861 28.1644 60.3405 27.2784C59.6064 26.2784 59.5937 24.6202 59.8216 23.405C60.0621 22.1139 60.7076 20.8481 61.543 20.0001C61.6949 20.8102 62.4418 21.3165 62.9101 21.5064C63.5303 21.7469 64.467 21.8228 65.6189 21.7215C66.2644 21.6709 66.9353 21.595 66.9353 21.595L79.4413 20.3418C79.897 20.2912 80.34 20.4431 80.6818 20.7469C81.0236 21.0507 81.2134 21.481 81.2134 21.9367V25.0506C81.2134 26.1898 80.3654 27.1265 79.2388 27.2404L74.682 27.6961V44.3665C74.682 45.4931 73.8339 46.4297 72.7073 46.5437L68.5429 46.9614ZM7.61105 46.5564C7.95281 46.8602 8.39583 47.012 8.85152 46.9614L13.016 46.5437C14.1425 46.4298 14.9906 45.4931 14.9906 44.3665V27.6961L19.5474 27.2404C20.674 27.1265 21.5221 26.1898 21.5221 25.0506V21.9368C21.5221 21.4811 21.3322 21.0507 20.9905 20.7469C20.6613 20.4431 20.2057 20.2912 19.75 20.3418L7.24397 21.595C7.24397 21.595 6.57309 21.6709 5.92754 21.7216C4.77567 21.8228 3.83898 21.7469 3.21875 21.5064C2.7504 21.3165 2.0036 20.8102 1.8517 20.0001C1.01628 20.8482 0.370729 22.114 0.130229 23.4051C-0.0976131 24.6202 -0.0849583 26.2784 0.6492 27.2784C1.29475 28.1644 2.16815 28.9998 5.06681 28.6961C5.2047 28.6823 5.38097 28.6635 5.58714 28.6415L5.58738 28.6415C5.94896 28.6029 6.40249 28.5545 6.90221 28.5062L7.07941 28.4935V45.3792C7.07941 45.8222 7.26929 46.2526 7.61105 46.5564ZM47.1639 27.8012L47.2778 27.9151L47.3917 27.8139C48.3158 26.8898 50.2777 25.8013 52.7207 25.7506C55.0245 25.7 57.3029 26.6873 58.7838 28.3708C61.5812 31.5353 60.7964 35.5605 60.4927 36.725C59.7712 39.4845 57.8725 41.8895 55.2903 43.3071C53.2017 44.459 50.898 45.0919 48.4297 45.1805H48.2778V49.4209C48.2778 50.5475 47.4297 51.4842 46.3031 51.5981L42.4551 51.9905C41.9995 52.0411 41.5564 51.8892 41.2147 51.5854C40.8729 51.2816 40.683 50.8513 40.683 50.3956V30.953C40.683 29.6113 40.5185 28.8392 40.1261 28.4594C39.9742 28.3075 39.7843 28.2189 39.5691 28.181C40.2147 27.4215 41.8476 26.6873 43.683 26.6873H43.7083C45.2652 26.7 46.3918 27.0544 47.1639 27.8012ZM49.7334 31.472C49.0752 31.8391 48.2778 32.6112 48.2778 34.2947H48.2651V39.611C48.2651 39.9022 48.493 40.1427 48.7841 40.1553H48.8727C49.8221 40.1553 51.0246 39.4085 51.8473 38.3073C53.265 36.4086 53.189 34.3074 53.0878 33.4973C52.9485 32.434 52.5308 31.7631 51.746 31.3961C51.4043 31.2315 50.5309 31.0416 49.7334 31.472ZM37.4966 29.5778V40.7801C37.4966 42.1218 37.6738 42.8813 38.0536 43.261C38.2055 43.4129 38.3953 43.5015 38.6105 43.5395C37.965 44.299 36.3321 45.0332 34.4967 45.0332H34.4714C32.9144 45.0205 31.7879 44.6661 31.0158 43.9193L30.9018 43.8053L30.7879 43.9193C29.8639 44.8433 27.9019 45.9319 25.4589 45.9825C23.1426 46.0331 20.8768 45.0458 19.3958 43.3623C16.5984 40.1978 17.3832 36.1726 17.687 35.0081C18.4085 32.2487 20.3072 29.8437 22.8894 28.426C25.4716 27.0083 28.0665 26.5399 30.3702 26.5399C31.9904 26.5399 33.4587 26.7678 34.6739 27.0589C36.5726 27.5146 37.4966 28.3374 37.4966 29.5778ZM28.4589 40.2611C29.1171 39.9067 29.9145 39.1346 29.9145 37.4511H29.9019V32.1347C29.9019 31.8436 29.674 31.6031 29.3829 31.5904C28.4336 31.5398 27.1804 32.2993 26.3323 33.4258C24.9147 35.3245 24.9906 37.4257 25.0919 38.2359C25.2311 39.2991 25.6488 39.97 26.4336 40.3371C26.6235 40.4257 26.9779 40.5269 27.3829 40.5269C27.7247 40.5269 28.0918 40.451 28.4589 40.2611ZM100.381 50.3956V30.953C100.381 29.6113 100.204 28.8518 99.8239 28.4721C99.672 28.3202 99.4821 28.2316 99.267 28.1936C99.9125 27.4341 101.545 26.7 103.381 26.7H103.406C104.963 26.7126 106.09 27.0671 106.862 27.8139L106.976 27.9278L107.09 27.8139C108.014 26.8898 109.976 25.8013 112.419 25.7506C114.735 25.7 117.001 26.6873 118.482 28.3708C121.266 31.5353 120.494 35.5605 120.19 36.725C119.469 39.4845 117.57 41.8895 114.988 43.3071C112.9 44.459 110.596 45.0919 108.127 45.1805H107.976V49.4209C107.976 50.5475 107.128 51.4842 106.001 51.5981L102.153 51.9905C101.697 52.0411 101.254 51.8892 100.912 51.5854C100.571 51.2816 100.381 50.8513 100.381 50.3956ZM109.419 31.472C108.76 31.8391 107.963 32.6112 107.963 34.2947H107.95V39.611C107.95 39.9022 108.178 40.1427 108.469 40.1553H108.558C109.507 40.1553 110.71 39.4085 111.532 38.3073C112.95 36.4086 112.874 34.3074 112.773 33.4973C112.634 32.434 112.216 31.7631 111.431 31.3961C111.089 31.2315 110.216 31.0416 109.419 31.472ZM97.1965 40.7801V29.5778C97.1965 28.3374 96.2725 27.5146 94.3738 27.0589C93.1587 26.7678 91.6904 26.5399 90.0702 26.5399C87.7664 26.5399 85.1715 27.0083 82.5893 28.426C80.0071 29.8437 78.1084 32.2487 77.3869 35.0081C77.0831 36.1726 76.2983 40.1978 79.0957 43.3623C80.5767 45.0458 82.8551 46.0331 85.1589 45.9825C87.6019 45.9319 89.5638 44.8433 90.4879 43.9193L90.6018 43.8053L90.7157 43.9193C91.4878 44.6661 92.6144 45.0205 94.1713 45.0332H94.1966C96.032 45.0332 97.6649 44.299 98.3104 43.5395C98.0953 43.5015 97.9054 43.4129 97.7535 43.261C97.3611 42.8813 97.1965 42.1218 97.1965 40.7801ZM89.6018 37.4511C89.6018 39.1346 88.8044 39.9067 88.1461 40.2611C87.7791 40.451 87.412 40.5269 87.0702 40.5269C86.6652 40.5269 86.3107 40.4257 86.1209 40.3371C85.3361 39.97 84.9184 39.2991 84.7791 38.2359C84.6779 37.4257 84.6019 35.3245 86.0196 33.4258C86.8677 32.2993 88.1208 31.5398 89.0702 31.5904C89.3613 31.6031 89.5891 31.8436 89.5891 32.1347V37.4511H89.6018Z" fill="#00D9C5"/>
</svg>