<?xml version="1.0" standalone="no"?><!DOCTYPE svg PUBLIC "-//W3C//DTD SVG 1.1//EN" "http://www.w3.org/Graphics/SVG/1.1/DTD/svg11.dtd"><svg t="1534156191736" class="icon" style="" viewBox="0 0 1024 1024" version="1.1" xmlns="http://www.w3.org/2000/svg" p-id="24364" xmlns:xlink="http://www.w3.org/1999/xlink" width="200" height="200"><defs><style type="text/css"></style></defs><path d="M517.12 38.4C256 38.4 46.08 248.32 46.08 506.88 46.08 768 256 977.92 517.12 977.92S985.6 768 985.6 506.88c0-258.56-209.92-468.48-468.48-468.48z m0 847.36C307.2 885.76 138.24 716.8 138.24 506.88 138.24 299.52 307.2 128 517.12 128S896 299.52 896 506.88c0 209.92-171.52 378.88-378.88 378.88z m289.28-419.84c-33.28-15.36-74.24-23.04-117.76-23.04s-84.48 7.68-117.76 23.04c2.56-64 53.76-115.2 117.76-115.2 64 0 115.2 51.2 117.76 115.2z m-345.6 0c-33.28-15.36-74.24-23.04-117.76-23.04-43.52 0-84.48 7.68-117.76 23.04 2.56-64 53.76-115.2 117.76-115.2 61.44 0 115.2 51.2 117.76 115.2z m-97.28 89.6c0-17.92-15.36-33.28-33.28-33.28-15.36 0-28.16 10.24-30.72 23.04-5.12-17.92-25.6-25.6-43.52-20.48-12.8 5.12-23.04 17.92-23.04 30.72 0 15.36 10.24 28.16 23.04 30.72-17.92 5.12-28.16 25.6-20.48 43.52 5.12 12.8 17.92 23.04 30.72 23.04 15.36 0 28.16-10.24 30.72-23.04 5.12 17.92 25.6 25.6 43.52 20.48 12.8-5.12 23.04-17.92 23.04-30.72 0-15.36-10.24-28.16-23.04-30.72 12.8-5.12 23.04-17.92 23.04-33.28z m-66.56 53.76c-2.56-10.24-10.24-17.92-20.48-20.48 10.24-2.56 17.92-10.24 20.48-20.48 2.56 10.24 10.24 17.92 20.48 20.48-7.68 2.56-15.36 10.24-20.48 20.48z" fill="#FF6600" p-id="24365"></path></svg>