<?xml version="1.0" standalone="no"?><!DOCTYPE svg PUBLIC "-//W3C//DTD SVG 1.1//EN" "http://www.w3.org/Graphics/SVG/1.1/DTD/svg11.dtd"><svg t="1533202259025" class="icon" style="" viewBox="0 0 1024 1024" version="1.1" xmlns="http://www.w3.org/2000/svg" p-id="5136" xmlns:xlink="http://www.w3.org/1999/xlink" width="200" height="200"><defs><style type="text/css"></style></defs><path d="M157.515279 0h708.969342A157.414887 157.414887 0 0 1 1023.9999 156.410965v711.17797A157.414887 157.414887 0 0 1 866.484621 1023.9999H157.515279A157.414887 157.414887 0 0 1 0 867.588935V156.410965A157.414887 157.414887 0 0 1 157.515279 0z" fill="#FC4514" p-id="5137"></path><path d="M434.798389 759.566984a61.74117 61.74117 0 0 1-62.142739 62.142739h-53.207838a64.451758 64.451758 0 0 0 53.207838-62.142739v-491.92152a30.117644 30.117644 0 0 0-30.117644-30.117644h-92.360776a30.117644 30.117644 0 0 0-30.117644 30.117644v461.803876a30.117644 30.117644 0 0 0 30.117644 30.117644h30.117644a31.121566 31.121566 0 1 1 0 62.142739h-62.042346a61.74117 61.74117 0 0 1-62.142739-62.142739V236.021938a62.945876 62.945876 0 0 1 62.142739-62.142739h154.403122a64.451758 64.451758 0 0 1 62.142739 63.849405zM867.890111 172.07214a61.74117 61.74117 0 0 1-62.142739 62.142739H589.201511c-17.76941 0-30.117644 12.448626-30.117644 33.731761v120.470577H864.376386a62.845484 62.845484 0 0 1-49.694113 60.235288v341.3333A61.74117 61.74117 0 0 1 752.941103 851.92776V448.953681H555.469749v342.638398A61.841563 61.841563 0 0 1 493.32701 853.33325V234.214879A64.552151 64.552151 0 0 1 555.469749 170.66665h312.420362z" fill="#FFFFFF" p-id="5138"></path></svg>